<?xml version="1.0" encoding="utf-8"?>
<svg version="1.1" xmlns="http://www.w3.org/2000/svg" xmlns:xlink="http://www.w3.org/1999/xlink" x="0px" y="0px" width="14" height="14" viewBox="0 0 1000 1000" enable-background="new 0 0 1000 1000" xml:space="preserve">
<g><g transform="translate(0.000000,511.000000) scale(0.100000,-0.100000)"><path fill="#000000" d="M394.1,4427.5c-106.7-37-200.4-119.8-248.3-220l-45.8-95.9l4.4-3060.7l6.5-3060.7l61-87.1c32.7-47.9,100.2-108.9,152.5-139.4l91.5-52.3l1923.6-6.5l1921.4-4.4v-52.3c0-106.7-91.5-403-187.3-599.1c-132.9-278.8-257.1-448.8-529.4-727.6c-222.2-226.6-230.9-239.6-230.9-331.1c0-76.3,13.1-108.9,61-156.9l58.8-61h1568.5H6570l58.8,61c47.9,47.9,61,80.6,61,156.9c0,91.5-8.7,104.6-230.9,331.1c-272.3,278.8-396.5,448.8-529.4,727.6c-95.8,196.1-187.3,492.3-187.3,599.1v52.3l1923.6,4.4c1751.5,6.5,1927.9,8.7,1988.9,43.6c100.2,54.5,202.6,169.9,228.7,257.1c13.1,50.1,19.6,1093.6,15.3,3119.5l-6.5,3041.1l-65.4,93.7c-34.8,50.1-104.6,113.3-152.5,137.2l-87.1,45.8l-4563.8,4.4C1875.4,4449.3,439.8,4442.7,394.1,4427.5z M9532.7,4083.3c43.6-43.6,43.6-71.9,43.6-2997.5c0-1993.3-6.5-2967-21.8-2995.4c-24-41.4-95.9-41.4-4553-41.4c-4457.1,0-4529,0-4553,41.4c-15.3,28.3-21.8,1004.3-21.8,3006.2v2962.7l47.9,32.7c43.6,30.5,509.8,34.9,4531.2,34.9C9460.8,4126.9,9489.1,4126.9,9532.7,4083.3z M5402.4-2358.4c6.5-34.9,17.4-104.6,26.1-159c56.7-385.6,320.2-895.3,651.4-1257l124.2-137.2H5001.5H3801.2l135.1,150.3c289.7,324.6,503.2,712.3,599.1,1082.7c28.3,115.5,52.3,233.1,52.3,259.2c0,122-4.4,119.8,413.9,119.8h387.8L5402.4-2358.4z"/><path d="M644.6,1077v-2810.2h4356.9h4356.9V1077v2810.2H5001.5H644.6V1077z M9009.9,1077v-2483.4H5001.5H993.2V1077v2483.4h4008.3h4008.3V1077z"/><path d="M1494.2,968.1v-2026h3431.1h3431.1v163.4v163.4H5215H2071.5l540.2,540.2l538.1,538.1h169.9c146,0,183,8.7,248.4,52.3c41.4,30.5,93.7,78.4,115.5,111.1l39.2,58.8l431.3-108.9c348.5-87.1,435.7-115.5,444.4-148.1c8.7-24,39.2-71.9,69.7-106.7c204.8-244,603.4-185.2,736.3,108.9c32.7,74.1,130.7,146,832.2,614.3l795.1,529.4h180.8c159,0,187.3,6.5,267.9,63.2c100.2,69.7,200.4,244,200.4,348.6c0,128.5-45.7,235.3-139.4,328.9c-298.4,298.5-775.5,67.5-749.4-363.8l6.5-126.3l-718.9-479.3c-564.2-374.7-721.1-470.5-736.3-446.6c-8.7,17.4-63.2,58.8-119.8,91.5c-187.4,111.1-405.2,74.1-559.9-95.9l-71.9-78.4l-413.9,104.6l-413.9,102.4l-58.8,91.5c-30.5,50.1-91.5,113.3-135.1,143.8c-67.5,45.7-104.6,54.5-248.3,54.5c-154.7,0-174.3-4.4-252.7-67.5c-45.7-37-104.6-104.6-132.9-152.5c-43.6-71.9-47.9-108.9-41.4-241.8l8.7-154.7L2361.2,37.9L1821-502.4v1749.3v1747.1h-163.4h-163.4V968.1z M7308.5,1961.5c47.9-56.6,19.6-152.5-50.1-176.5c-52.3-17.4-67.5-13.1-102.4,30.5c-50.1,61-52.3,98-6.5,141.6C7190.8,2000.7,7275.8,2002.9,7308.5,1961.5z M3406.9,854.8c15.3-15.2,26.1-52.3,26.1-82.8c0-30.5-10.9-67.5-26.1-82.8c-61-61-191.7-4.4-191.7,82.8C3215.2,859.2,3345.9,915.8,3406.9,854.8z M5084.3,571.6c58.8-58.8,0-191.7-85-191.7c-87.1,0-141.6,130.7-80.6,191.7c15.2,15.3,52.3,26.1,82.8,26.1C5032,597.8,5069,586.9,5084.3,571.6z"/></g></g>
</svg>